# xmcd
#
# Track frame offsets: 
#        150
#        16442
#        32238
#        49713
#        66109
#        81562
#        99758
#        115498
#        131214
#        148146
#
# Disc length: 2186 seconds
#
# Revision: 1
# Processed by: cddbd v1.5.2PL0 Copyright (c) Steve Scherf et al.
# Submitted via: ExactAudioCopy v0.95b4
#
DISCID=9008880a
DTITLE=แมงปอ  ชลธิชา - แม่ครัวหัวไข่
DYEAR=1900
DGENRE=Country
TTITLE0=แม่ครัวหัวไข่
TTITLE1=พี่หลวงอย่าลวงน้อง
TTITLE2=ตามล่าชายลวง
TTITLE3=หลอกกันทั้งปี
TTITLE4=รอรักหนุ่ม อ.บ.ต.
TTITLE5=กล้าๆ หน่อย
TTITLE6=ผู้ชายหัวใจสบู่
TTITLE7=รูดบัตรวัดใจ
TTITLE8=เป็นได้แค่เพื่อน
TTITLE9=ไม่ได้แอ้มฉันหรอก
EXTD=
EXTT0=
EXTT1=
EXTT2=
EXTT3=
EXTT4=
EXTT5=
EXTT6=
EXTT7=
EXTT8=
EXTT9=
PLAYORDER=
